<svg width="106" height="21" viewBox="0 0 106 21" fill="none" xmlns="http://www.w3.org/2000/svg">
<path d="M105 14.9825L103.459 14.9191C101.918 14.8558 98.836 14.7292 95.754 15.1703C92.672 15.6114 89.59 16.6203 86.508 17.3408C83.426 18.0612 79.4055 14.0128 76.3235 13.1639C73.2415 12.315 70.9938 19.6392 67.9118 19.9674C64.8298 20.2957 61.852 18.1084 58.77 14.9319C55.6881 11.7555 52.6061 9.21359 49.5241 4.93654C46.4421 0.659496 43.3601 1.24467 40.2781 5.26928C37.1961 9.2939 34.1141 10.1606 31.0321 10.1701C27.9501 10.1796 24.3467 14.1845 21.2647 12.3392C18.1827 10.494 15.6221 2.79858 12.5401 2.75388C9.4581 2.70918 5.20588 4.71102 0.999998 1" stroke="#F99F01" stroke-width="2" stroke-linecap="round"/>
</svg>
