<svg width="106" height="25" viewBox="0 0 106 25" fill="none" xmlns="http://www.w3.org/2000/svg">
<path d="M1 20.8828L2.57576 20.8198C4.15152 20.7567 7.30303 20.6306 10.4545 21.0699C13.6061 21.5093 16.7576 22.5143 19.9091 23.2319C23.0606 23.9495 26.2121 24.3798 29.3636 23.5342C32.5152 22.6886 35.6667 20.5671 38.8182 20.8941C41.9697 21.221 45.1212 23.9964 48.2727 20.8325C51.4242 17.6685 54.5758 8.56522 57.7273 4.30499C60.8788 0.0447593 64.0303 0.627629 67.1818 4.63642C70.3333 8.64521 73.4848 16.0799 76.6364 16.0894C79.7879 16.0988 82.9394 8.68298 86.0909 6.84499C89.2424 5.007 92.3939 8.74686 95.5455 8.70233C98.697 8.65781 101.848 4.8289 103.424 2.91445L105 1" stroke="#F99F01" stroke-width="2" stroke-linecap="round"/>
</svg>
