<svg width="22" height="22" viewBox="0 0 22 22" fill="none" xmlns="http://www.w3.org/2000/svg">
<path d="M1.83337 20.167H20.1667" stroke="white" stroke-width="1.5" stroke-miterlimit="10" stroke-linecap="round" stroke-linejoin="round"/>
<path d="M2.70422 20.1668L2.75006 9.1393C2.75006 8.58013 3.01589 8.04851 3.45589 7.70018L9.87256 2.70434C10.5326 2.191 11.4584 2.191 12.1276 2.70434L18.5442 7.691C18.9934 8.03934 19.2501 8.57096 19.2501 9.1393V20.1668" stroke="white" stroke-width="1.5" stroke-miterlimit="10" stroke-linejoin="round"/>
<path d="M7.33337 11.9167L9.20204 9.64157C9.46899 9.3176 9.96364 9.2587 10.3091 9.50904L11.7459 10.5693C12.0914 10.8196 12.5861 10.7607 12.853 10.4441L14.6667 8.25" stroke="white" stroke-width="1.5" stroke-linecap="round" stroke-linejoin="round"/>
<path d="M8.25 16.5003V14.667" stroke="white" stroke-width="1.5" stroke-linecap="round"/>
<path d="M11 16.5V13.75" stroke="white" stroke-width="1.5" stroke-linecap="round"/>
<path d="M13.75 16.4997V12.833" stroke="white" stroke-width="1.5" stroke-linecap="round"/>
</svg>
