<svg width="22" height="22" viewBox="0 0 22 22" fill="none" xmlns="http://www.w3.org/2000/svg">
<path fill-rule="evenodd" clip-rule="evenodd" d="M16.7005 4.09353C15.3043 2.92204 13.2229 3.10415 12.0514 4.50027L9.87583 7.093C9.62733 7.38915 9.1858 7.42778 8.88965 7.17928C8.5935 6.93078 8.55487 6.48925 8.80337 6.1931L10.9789 3.60037C12.6474 1.61194 15.6119 1.35258 17.6004 3.02107C19.5888 4.68956 19.8482 7.65408 18.1797 9.6425L16.0041 12.2352C15.7556 12.5314 15.3141 12.57 15.0179 12.3215C14.7218 12.073 14.6831 11.6315 14.9316 11.3353L17.1072 8.7426C18.2787 7.34648 18.0966 5.26502 16.7005 4.09353Z" fill="white"/>
<path fill-rule="evenodd" clip-rule="evenodd" d="M5.33762 17.635C6.73375 18.8065 8.8152 18.6244 9.98669 17.2282L12.1623 14.6355C12.4108 14.3394 12.8523 14.3007 13.1484 14.5492C13.4446 14.7977 13.4832 15.2393 13.2347 15.5354L11.0592 18.1281C9.39066 20.1166 6.42615 20.3759 4.43772 18.7074C2.44929 17.039 2.18993 14.0744 3.85842 12.086L6.03398 9.49328C6.28248 9.19713 6.72401 9.1585 7.02016 9.407C7.31631 9.6555 7.35494 10.097 7.10644 10.3932L4.93088 12.9859C3.75939 14.382 3.9415 16.4635 5.33762 17.635Z" fill="white"/>
<path d="M13.4426 6.9394C13.6792 6.65735 14.0997 6.62057 14.3818 6.85723C14.6638 7.09389 14.7006 7.51439 14.464 7.79644L8.59653 14.789C8.35987 15.071 7.93937 15.1078 7.65733 14.8711C7.37528 14.6345 7.33849 14.214 7.57515 13.9319L13.4426 6.9394Z" fill="white"/>
<path fill-rule="evenodd" clip-rule="evenodd" d="M13.3661 6.87538C13.6383 6.55103 14.1218 6.50872 14.4462 6.78088C14.7705 7.05305 14.8128 7.53662 14.5407 7.86098L8.67326 14.8535C8.40109 15.1778 7.91752 15.2202 7.59316 14.948C7.26881 14.6758 7.2265 14.1923 7.49867 13.8679L13.3661 6.87538ZM14.3176 6.93409C14.0779 6.73293 13.7205 6.7642 13.5193 7.00394L7.65188 13.9965C7.45071 14.2362 7.48198 14.5936 7.72172 14.7948C7.96146 14.9959 8.31888 14.9647 8.52005 14.7249L14.3875 7.73242C14.5886 7.49268 14.5574 7.13526 14.3176 6.93409Z" fill="white"/>
</svg>
