<svg width="20" height="20" viewBox="0 0 20 20" fill="none" xmlns="http://www.w3.org/2000/svg">
<path d="M6.89163 18.5101H3.52496C1.84996 18.5101 1.04163 17.7738 1.04163 16.2538V3.74551C1.04163 2.22551 1.85829 1.48926 3.52496 1.48926H6.89163C8.56663 1.48926 9.37496 2.22551 9.37496 3.74551V16.2538C9.37496 17.7738 8.55829 18.5101 6.89163 18.5101ZM3.52496 2.67676C2.46663 2.67676 2.29163 2.94592 2.29163 3.74551V16.2538C2.29163 17.0534 2.46663 17.3226 3.52496 17.3226H6.89163C7.94996 17.3226 8.12496 17.0534 8.12496 16.2538V3.74551C8.12496 2.94592 7.94996 2.67676 6.89163 2.67676H3.52496Z" fill="white" stroke="white" stroke-width="0.4"/>
<path d="M16.475 11.3851H13.1083C11.4333 11.3851 10.625 10.6488 10.625 9.12884V3.74551C10.625 2.22551 11.4417 1.48926 13.1083 1.48926H16.475C18.15 1.48926 18.9583 2.22551 18.9583 3.74551V9.12884C18.9583 10.6488 18.1417 11.3851 16.475 11.3851ZM13.1083 2.67676C12.05 2.67676 11.875 2.94592 11.875 3.74551V9.12884C11.875 9.92842 12.05 10.1976 13.1083 10.1976H16.475C17.5333 10.1976 17.7083 9.92842 17.7083 9.12884V3.74551C17.7083 2.94592 17.5333 2.67676 16.475 2.67676H13.1083Z" fill="white" stroke="white" stroke-width="0.4"/>
<path d="M16.475 18.5107H13.1083C11.4333 18.5107 10.625 17.7745 10.625 16.2545V14.8295C10.625 13.3095 11.4417 12.5732 13.1083 12.5732H16.475C18.15 12.5732 18.9583 13.3095 18.9583 14.8295V16.2545C18.9583 17.7745 18.1417 18.5107 16.475 18.5107ZM13.1083 13.7607C12.05 13.7607 11.875 14.0299 11.875 14.8295V16.2545C11.875 17.0541 12.05 17.3232 13.1083 17.3232H16.475C17.5333 17.3232 17.7083 17.0541 17.7083 16.2545V14.8295C17.7083 14.0299 17.5333 13.7607 16.475 13.7607H13.1083Z" fill="white" stroke="white" stroke-width="0.4"/>
</svg>
