<svg width="22" height="22" viewBox="0 0 22 22" fill="none" xmlns="http://www.w3.org/2000/svg">
<path d="M17.9117 5.99467L15.0975 3.18051C14.2358 2.31884 13.0717 1.83301 11.8525 1.83301H7.33333C4.58333 1.83301 2.75 3.66634 2.75 6.41634V15.583C2.75 18.333 4.58333 20.1663 7.33333 20.1663H14.6667C17.4167 20.1663 19.25 18.333 19.25 15.583V9.23051C19.25 8.01134 18.7642 6.84717 17.9117 5.99467Z" stroke="white" stroke-width="1.5" stroke-linecap="round" stroke-linejoin="round"/>
<path d="M9.16663 16.958H12.8333C14.3458 16.958 15.5833 15.7205 15.5833 14.208V11.458C15.5833 9.94551 14.3458 8.70801 12.8333 8.70801H9.16663C7.65413 8.70801 6.41663 9.94551 6.41663 11.458V14.208C6.41663 15.7205 7.65413 16.958 9.16663 16.958Z" stroke="white" stroke-width="1.5" stroke-linecap="round" stroke-linejoin="round"/>
<path d="M11 8.70801V16.958" stroke="white" stroke-width="1.5" stroke-linecap="round" stroke-linejoin="round"/>
<path d="M6.875 12.833H15.125" stroke="white" stroke-width="1.5" stroke-linecap="round" stroke-linejoin="round"/>
</svg>
