<svg width="22" height="16" viewBox="0 0 22 16" fill="none" xmlns="http://www.w3.org/2000/svg">
<path d="M11.275 8.20134C11.7641 7.77796 12.1564 7.25432 12.4253 6.66595C12.6941 6.07757 12.8333 5.43824 12.8333 4.79134C12.8333 3.57577 12.3504 2.40998 11.4909 1.55044C10.6313 0.690894 9.46553 0.208008 8.24996 0.208008C7.03438 0.208008 5.86859 0.690894 5.00905 1.55044C4.14951 2.40998 3.66663 3.57577 3.66663 4.79134C3.66662 5.43824 3.80578 6.07757 4.07466 6.66595C4.34354 7.25432 4.73585 7.77796 5.22496 8.20134C3.94175 8.7824 2.85305 9.72074 2.08902 10.9042C1.325 12.0876 0.917975 13.466 0.916626 14.8747C0.916626 15.1178 1.0132 15.3509 1.18511 15.5229C1.35702 15.6948 1.59018 15.7913 1.83329 15.7913C2.07641 15.7913 2.30957 15.6948 2.48147 15.5229C2.65338 15.3509 2.74996 15.1178 2.74996 14.8747C2.74996 13.416 3.32942 12.017 4.36087 10.9856C5.39232 9.95414 6.79127 9.37467 8.24996 9.37467C9.70865 9.37467 11.1076 9.95414 12.139 10.9856C13.1705 12.017 13.75 13.416 13.75 14.8747C13.75 15.1178 13.8465 15.3509 14.0184 15.5229C14.1904 15.6948 14.4235 15.7913 14.6666 15.7913C14.9097 15.7913 15.1429 15.6948 15.3148 15.5229C15.4867 15.3509 15.5833 15.1178 15.5833 14.8747C15.5819 13.466 15.1749 12.0876 14.4109 10.9042C13.6469 9.72074 12.5582 8.7824 11.275 8.20134ZM8.24996 7.54134C7.70606 7.54134 7.17438 7.38006 6.72214 7.07788C6.26991 6.77571 5.91743 6.34622 5.70929 5.84372C5.50115 5.34122 5.44669 4.78829 5.5528 4.25484C5.65891 3.7214 5.92082 3.23139 6.30542 2.8468C6.69001 2.4622 7.18001 2.20029 7.71346 2.09418C8.24691 1.98807 8.79984 2.04253 9.30234 2.25067C9.80484 2.45881 10.2343 2.81129 10.5365 3.26352C10.8387 3.71576 11 4.24744 11 4.79134C11 5.52069 10.7102 6.22016 10.1945 6.73589C9.67878 7.25161 8.9793 7.54134 8.24996 7.54134ZM17.1783 7.83467C17.7649 7.17406 18.1481 6.35798 18.2818 5.48465C18.4154 4.61133 18.2938 3.71799 17.9316 2.91217C17.5693 2.10636 16.9819 1.4224 16.2401 0.942645C15.4982 0.462887 14.6334 0.207772 13.75 0.208008C13.5068 0.208008 13.2737 0.304585 13.1018 0.476493C12.9299 0.648402 12.8333 0.88156 12.8333 1.12467C12.8333 1.36779 12.9299 1.60095 13.1018 1.77286C13.2737 1.94476 13.5068 2.04134 13.75 2.04134C14.4793 2.04134 15.1788 2.33107 15.6945 2.8468C16.2102 3.36252 16.5 4.062 16.5 4.79134C16.4987 5.27281 16.371 5.7455 16.1297 6.16214C15.8884 6.57879 15.5419 6.92477 15.125 7.16551C14.9891 7.2439 14.8755 7.35587 14.7953 7.49069C14.715 7.62551 14.6707 7.77867 14.6666 7.93551C14.6628 8.09112 14.6986 8.24515 14.7708 8.38308C14.843 8.521 14.9491 8.63827 15.0791 8.72384L15.4366 8.96217L15.5558 9.02634C16.6607 9.55042 17.5929 10.3793 18.2425 11.4155C18.8921 12.4516 19.2321 13.6518 19.2225 14.8747C19.2225 15.1178 19.319 15.3509 19.4909 15.5229C19.6629 15.6948 19.896 15.7913 20.1391 15.7913C20.3822 15.7913 20.6154 15.6948 20.7873 15.5229C20.9592 15.3509 21.0558 15.1178 21.0558 14.8747C21.0633 13.468 20.711 12.0827 20.0323 10.8506C19.3536 9.61839 18.3712 8.58021 17.1783 7.83467Z" fill="white"/>
</svg>
