<svg width="32" height="32" viewBox="0 0 32 32" fill="none" xmlns="http://www.w3.org/2000/svg">
<path d="M16.0167 7.4248C13.2583 7.4248 11.0167 9.66647 11.0167 12.4248V14.8331C11.0167 15.3415 10.8 16.1165 10.5417 16.5498L9.58333 18.1415C8.99166 19.1248 9.4 20.2165 10.4833 20.5831C14.075 21.7831 17.95 21.7831 21.5417 20.5831C22.55 20.2498 22.9917 19.0581 22.4417 18.1415L21.4833 16.5498C21.2333 16.1165 21.0167 15.3415 21.0167 14.8331V12.4248C21.0167 9.6748 18.7667 7.4248 16.0167 7.4248Z" stroke="white" stroke-miterlimit="10" stroke-linecap="round"/>
<path d="M18.5167 20.8838C18.5167 22.2588 17.3917 23.3838 16.0167 23.3838C15.3333 23.3838 14.7 23.1005 14.25 22.6505C13.8 22.2005 13.5167 21.5671 13.5167 20.8838" stroke="white" stroke-miterlimit="10"/>
<rect x="0.7" y="0.7" width="30.6" height="30.6" rx="9.3" stroke="white" stroke-width="1.4"/>
</svg>
