<svg width="22" height="22" viewBox="0 0 22 22" fill="none" xmlns="http://www.w3.org/2000/svg">
<path d="M8.25004 20.1663H13.75C18.3334 20.1663 20.1667 18.333 20.1667 13.7497V8.24967C20.1667 3.66634 18.3334 1.83301 13.75 1.83301H8.25004C3.66671 1.83301 1.83337 3.66634 1.83337 8.24967V13.7497C1.83337 18.333 3.66671 20.1663 8.25004 20.1663Z" stroke="white" stroke-width="1.5" stroke-linecap="round" stroke-linejoin="round"/>
<path d="M16.4083 8.29567C14.41 8.094 12.3933 7.99316 10.3858 7.99316C9.19417 7.99316 8.0025 8.05733 6.82 8.17649L5.59167 8.29567" stroke="white" stroke-width="1.5" stroke-linecap="round" stroke-linejoin="round"/>
<path d="M8.90088 7.69082L9.02921 6.90248C9.12088 6.33415 9.19421 5.90332 10.2117 5.90332H11.7884C12.8059 5.90332 12.8792 6.35248 12.9709 6.90248L13.0992 7.68166" stroke="white" stroke-width="1.5" stroke-linecap="round" stroke-linejoin="round"/>
<path d="M15.1158 8.36914L14.7217 14.4191C14.6575 15.3633 14.6025 16.0966 12.925 16.0966H9.06583C7.38833 16.0966 7.33333 15.3633 7.26916 14.4191L6.875 8.36914" stroke="white" stroke-width="1.5" stroke-linecap="round" stroke-linejoin="round"/>
</svg>
