<svg width="20" height="20" viewBox="0 0 20 20" fill="none" xmlns="http://www.w3.org/2000/svg">
<path d="M10 12.75C11.5188 12.75 12.75 11.5188 12.75 10C12.75 8.48122 11.5188 7.25 10 7.25C8.48122 7.25 7.25 8.48122 7.25 10C7.25 11.5188 8.48122 12.75 10 12.75Z" stroke="white" stroke-width="1.5" stroke-miterlimit="10" stroke-linecap="round" stroke-linejoin="round"/>
<path d="M0.833374 10.8066V9.19332C0.833374 8.23998 1.61254 7.45165 2.57504 7.45165C4.23421 7.45165 4.91254 6.27832 4.07837 4.83915C3.60171 4.01415 3.88587 2.94165 4.72004 2.46498L6.30587 1.55748C7.03004 1.12665 7.96504 1.38332 8.39587 2.10748L8.49671 2.28165C9.32171 3.72082 10.6784 3.72082 11.5125 2.28165L11.6134 2.10748C12.0442 1.38332 12.9792 1.12665 13.7034 1.55748L15.2892 2.46498C16.1234 2.94165 16.4075 4.01415 15.9309 4.83915C15.0967 6.27832 15.775 7.45165 17.4342 7.45165C18.3875 7.45165 19.1759 8.23082 19.1759 9.19332V10.8066C19.1759 11.76 18.3967 12.5483 17.4342 12.5483C15.775 12.5483 15.0967 13.7216 15.9309 15.1608C16.4075 15.995 16.1234 17.0583 15.2892 17.535L13.7034 18.4425C12.9792 18.8733 12.0442 18.6166 11.6134 17.8925L11.5125 17.7183C10.6875 16.2791 9.33087 16.2791 8.49671 17.7183L8.39587 17.8925C7.96504 18.6166 7.03004 18.8733 6.30587 18.4425L4.72004 17.535C3.88587 17.0583 3.60171 15.9858 4.07837 15.1608C4.91254 13.7216 4.23421 12.5483 2.57504 12.5483C1.61254 12.5483 0.833374 11.76 0.833374 10.8066Z" stroke="white" stroke-width="1.5" stroke-miterlimit="10" stroke-linecap="round" stroke-linejoin="round"/>
</svg>
