<svg width="32" height="32" viewBox="0 0 32 32" fill="none" xmlns="http://www.w3.org/2000/svg">
<g clip-path="url(#clip0_127_1158)">
<circle cx="16" cy="16" r="16" fill="white"/>
<path d="M16.3795 9.67578H10.0626V15.9341C10.0626 15.9341 13.5593 16.2971 14.9127 17.8115C16.149 19.1949 16.3208 22.3488 16.3208 22.3488H22.5791V15.9341C22.5791 15.9341 19.3844 15.6774 18.0419 14.3695C16.649 13.0125 16.3795 9.67578 16.3795 9.67578Z" fill="#7487F5"/>
<path d="M16.4421 -3H10.1252V3.25828C10.1252 3.25828 13.6219 3.62136 14.9754 5.13577C16.2117 6.5191 16.3835 9.67302 16.3835 9.67302H22.6417V3.25828C22.6417 3.25828 19.447 3.00165 18.1045 1.69371C16.7117 0.336726 16.4421 -3 16.4421 -3Z" fill="#7487F5"/>
<path d="M16.317 22.3447H10V28.603C10 28.603 13.4967 28.9661 14.8502 30.4805C16.0865 31.8638 16.2583 35.0177 16.2583 35.0177H22.5166V28.603C22.5166 28.603 19.3218 28.3464 17.9793 27.0384C16.5865 25.6815 16.317 22.3447 16.317 22.3447Z" fill="#7487F5"/>
</g>
<defs>
<clipPath id="clip0_127_1158">
<rect width="32" height="32" rx="16" fill="white"/>
</clipPath>
</defs>
</svg>
